<svg xmlns="http://www.w3.org/2000/svg" viewBox="0 0 187.36 163.81">
  <defs>
    <style>
      .cls-1 {
        fill: #5b5b5b;
      }
    </style>
  </defs>
  <title>Asset 5</title>
  <g id="Layer_2" data-name="Layer 2">
    <g id="Layer_1-2" data-name="Layer 1">
      <g>
        <path class="cls-1" d="M3,163.81a3.17,3.17,0,0,1-.85-.12,3,3,0,0,1-2-3.73L46.7,2.15a3,3,0,1,1,5.75,1.7L5.88,161.66A3,3,0,0,1,3,163.81Z"/>
        <path class="cls-1" d="M132.6,115.34A68.3,68.3,0,0,1,85.25,97C56.9,70.83,28.83,83.41,28.55,83.54A3,3,0,0,1,26,78.09a50.81,50.81,0,0,1,19.86-3.72H46c10.78,0,27.05,3.2,43.33,18.24,25.45,23.51,57.15,15.74,63.72,13.78l26.47-64.83c-14.28,2.29-52.33,6.24-68.62-12.81-7.59-8.88-19-14.14-33.79-15.65a84.32,84.32,0,0,0-27.63,1.73A3,3,0,0,1,47.88,9c11.36-3.11,48.17-6.88,67.57,15.82,17.53,20.49,67.77,10,68.27,9.84a3,3,0,0,1,3.41,4.07L158.07,110a3,3,0,0,1-1.75,1.68A74.38,74.38,0,0,1,132.6,115.34Z"/>
        <path class="cls-1" d="M143.6,81.34A68.3,68.3,0,0,1,96.25,63C67.9,36.83,39.83,49.41,39.55,49.54A3,3,0,0,1,37,44.09c.31-.14,32-14.36,63.29,14.52C128.72,84.84,164.9,72.13,165.26,72a3,3,0,0,1,2.06,5.63A74.38,74.38,0,0,1,143.6,81.34Z"/>
      </g>
    </g>
  </g>
</svg>
