<svg xmlns="http://www.w3.org/2000/svg" viewBox="0 0 220 164.7">
  <defs>
    <style>
      .cls-1 {
        fill: #5b5b5b;
      }
    </style>
  </defs>
  <title>Asset 9</title>
  <g id="Layer_2" data-name="Layer 2">
    <g id="Layer_1-2" data-name="Layer 1">
      <g>
        <path class="cls-1" d="M109.86,164.7c-12.69,0-44.69-18.5-48.62-20.8-7-3.65-11-7.59-11-16.85V72.78h6v54.27c0,6.44,2.31,8.68,7.83,11.57l.13.07c9.51,5.57,36.22,20,45.64,20h0c9.24,0,35.54-14.45,44.9-20l.14-.08c5.52-2.89,7.83-5.13,7.83-11.57V72.78h6v54.27c0,9.26-4,13.2-11,16.85-3.9,2.32-35.4,20.76-47.87,20.8Z"/>
        <path class="cls-1" d="M110,98.84a3,3,0,0,1-1.18-.24L1.82,53a3,3,0,0,1,0-5.51L108.79.26a2.92,2.92,0,0,1,2.42,0l107,47.23a3,3,0,0,1,0,5.51l-107,45.6A3,3,0,0,1,110,98.84ZM10.54,50.19,110,92.58l99.46-42.39L110,6.28Z"/>
        <path class="cls-1" d="M18.24,110.44a3,3,0,0,1-3-3V60a3,3,0,0,1,6,0v47.47A3,3,0,0,1,18.24,110.44Z"/>
        <path class="cls-1" d="M5,127a3,3,0,0,1-2.36-4.85l13-16.58a3,3,0,1,1,4.72,3.71l-13,16.57A3,3,0,0,1,5,127Z"/>
        <path class="cls-1" d="M18,131.54a3,3,0,0,1-3-3v-21.1a3,3,0,0,1,5.35-1.87l12,15.07a3,3,0,1,1-4.7,3.74L21,116v12.51A3,3,0,0,1,18,131.54Z"/>
      </g>
    </g>
  </g>
</svg>
