<svg xmlns="http://www.w3.org/2000/svg" viewBox="0 0 158 170.06">
  <defs>
    <style>
      .cls-1 {
        fill: #5b5b5b;
      }
    </style>
  </defs>
  <title>Asset 11</title>
  <g id="Layer_2" data-name="Layer 2">
    <g id="Layer_1-2" data-name="Layer 1">
      <g>
        <path class="cls-1" d="M37,51.48a3,3,0,0,1-3-3V3A3,3,0,0,1,38.41.35L81.69,23.46a3,3,0,0,1,0,5.31L38.38,51.14A3.09,3.09,0,0,1,37,51.48ZM40,8V43.55L73.83,26.06Z"/>
        <path class="cls-1" d="M123,51.48a3.09,3.09,0,0,1-1.38-.34L78.34,28.77a3,3,0,0,1,0-5.31L121.59.35A3,3,0,0,1,126,3V48.48a3,3,0,0,1-3,3ZM86.17,26.06,120,43.55V8Z"/>
        <path class="cls-1" d="M79,170.06A79,79,0,0,1,35.33,25.21a3,3,0,1,1,3.32,5,73,73,0,1,0,82.62,1.32,3,3,0,1,1,3.48-4.89A79,79,0,0,1,79,170.06Z"/>
        <path class="cls-1" d="M79,151.06a28,28,0,1,1,28-28A28,28,0,0,1,79,151.06Zm0-50a22,22,0,1,0,22,22A22,22,0,0,0,79,101.06Z"/>
        <path class="cls-1" d="M79,139.06a16,16,0,1,1,16-16A16,16,0,0,1,79,139.06Zm0-26a10,10,0,1,0,10,10A10,10,0,0,0,79,113.06Z"/>
        <path class="cls-1" d="M99,80.06a14,14,0,0,1-14-14,3,3,0,0,1,6,0,8,8,0,0,0,16,0,3,3,0,0,1,6,0A14,14,0,0,1,99,80.06Z"/>
        <path class="cls-1" d="M59,80.06a14,14,0,0,1-14-14,3,3,0,0,1,6,0,8,8,0,0,0,16,0,3,3,0,0,1,6,0A14,14,0,0,1,59,80.06Z"/>
      </g>
    </g>
  </g>
</svg>
