<svg xmlns="http://www.w3.org/2000/svg" viewBox="0 0 123.13 195.34">
  <defs>
    <style>
      .cls-1 {
        fill: #5b5b5b;
      }
    </style>
  </defs>
  <title>Asset 20</title>
  <g id="Layer_2" data-name="Layer 2">
    <g id="Layer_1-2" data-name="Layer 1">
      <path class="cls-1" d="M47.4,195.34a3.15,3.15,0,0,1-.8-.11,3,3,0,0,1-2.2-2.89V97.65H3A3,3,0,0,1,.56,96.4a3,3,0,0,1-.4-2.7L30.88,2.05a3,3,0,0,1,2.84-2H87.49a3,3,0,0,1,2.83,4L67.65,69.12h52.48a3,3,0,0,1,2.56,4.56L50,193.89A3,3,0,0,1,47.4,195.34ZM7.17,91.65H47.4a3,3,0,0,1,3,3v86.93L114.81,75.12H63.43a3,3,0,0,1-2.83-4L83.27,6H35.88Z"/>
    </g>
  </g>
</svg>
