<svg xmlns="http://www.w3.org/2000/svg" viewBox="0 0 123.58 185">
  <defs>
    <style>
      .cls-1 {
        fill: #5b5b5b;
      }
    </style>
  </defs>
  <title>Asset 23</title>
  <g id="Layer_2" data-name="Layer 2">
    <g id="Layer_1-2" data-name="Layer 1">
      <g>
        <path class="cls-1" d="M108.58,185H15c-8.27,0-15-6.22-15-13.88V30.19c0-7.65,6.73-13.88,15-13.88h93.58c8.27,0,15,6.23,15,13.88V171.12C123.58,178.78,116.85,185,108.58,185ZM15,21.86c-5,0-9,3.74-9,8.33V171.12c0,4.6,4,8.33,9,8.33h93.58c5,0,9-3.73,9-8.33V30.19c0-4.59-4-8.33-9-8.33Z"/>
        <path class="cls-1" d="M82.25,21.86H41.32a5.27,5.27,0,0,1-5.46-5.05V5.05a5.28,5.28,0,0,1,5.46-5H82.25a5.28,5.28,0,0,1,5.47,5.05V16.81A5.27,5.27,0,0,1,82.25,21.86ZM41.86,16.31H81.72V5.55H41.86Z"/>
        <path class="cls-1" d="M104.41,151.5H17.7a3,3,0,1,1,0-6h86.71a3,3,0,0,1,0,6Z"/>
        <path class="cls-1" d="M104.41,111.82H17.7a3,3,0,0,1,0-6h86.71a3,3,0,0,1,0,6Z"/>
        <path class="cls-1" d="M104.41,66.73H17.7a2.78,2.78,0,1,1,0-5.55h86.71a2.78,2.78,0,1,1,0,5.55Z"/>
      </g>
    </g>
  </g>
</svg>
