<svg xmlns="http://www.w3.org/2000/svg" viewBox="0 0 140.94 141.76">
  <defs>
    <style>
      .cls-1 {
        fill: #5b5b5b;
      }
    </style>
  </defs>
  <title>Asset 25</title>
  <g id="Layer_2" data-name="Layer 2">
    <g id="Layer_1-2" data-name="Layer 1">
      <g>
        <g>
          <path class="cls-1" d="M70.79,73.76a3,3,0,0,1-2.12-5.13L134.21,3.09a3,3,0,0,1,4.24,4.25L72.91,72.88A3,3,0,0,1,70.79,73.76Z"/>
          <path class="cls-1" d="M70.15,73.76A3,3,0,0,1,68,72.88L2.49,7.34A3,3,0,0,1,6.73,3.09L72.27,68.63a3,3,0,0,1-2.12,5.13Z"/>
          <path class="cls-1" d="M137.94,45.13a3,3,0,0,1-3-3V6H6V42.13a3,3,0,0,1-6,0V3A3,3,0,0,1,3,0H137.94a3,3,0,0,1,3,3V42.13A3,3,0,0,1,137.94,45.13Z"/>
        </g>
        <g>
          <path class="cls-1" d="M136.33,139.54a3,3,0,0,1-2.12-.88L68.67,73.12a3,3,0,1,1,4.24-4.24l65.54,65.54a3,3,0,0,1-2.12,5.12Z"/>
          <path class="cls-1" d="M4.61,139.54a3,3,0,0,1-2.12-5.12L68,68.88a3,3,0,1,1,4.24,4.24L6.73,138.66A3,3,0,0,1,4.61,139.54Z"/>
          <path class="cls-1" d="M137.94,141.76H3a3,3,0,0,1-3-3V42.13a3,3,0,0,1,6,0v93.63H134.94V42.13a3,3,0,1,1,6,0v96.63A3,3,0,0,1,137.94,141.76Z"/>
        </g>
      </g>
    </g>
  </g>
</svg>
