<svg xmlns="http://www.w3.org/2000/svg" viewBox="0 0 152.8 153.37">
  <defs>
    <style>
      .cls-1 {
        fill: #5b5b5b;
      }
    </style>
  </defs>
  <title>Asset 27</title>
  <g id="Layer_2" data-name="Layer 2">
    <g id="Layer_1-2" data-name="Layer 1">
      <g>
        <path class="cls-1" d="M51.93,103.87a3,3,0,0,1-3-3V51.93a3,3,0,0,1,3-3h48.94a3,3,0,0,1,0,6H54.93v45.94A3,3,0,0,1,51.93,103.87Z"/>
        <path class="cls-1" d="M149.8,153.37H3a3,3,0,0,1-3-3V101.44a3,3,0,0,1,3-3H51.93a3,3,0,1,1,0,6H6v42.93H146.8V6H103.87V51.93a3,3,0,1,1-6,0V3a3,3,0,0,1,3-3H149.8a3,3,0,0,1,3,3V150.37A3,3,0,0,1,149.8,153.37Z"/>
      </g>
    </g>
  </g>
</svg>
