<svg xmlns="http://www.w3.org/2000/svg" viewBox="0 0 181.54 165">
  <defs>
    <style>
      .cls-1 {
        fill: #5b5b5b;
      }
    </style>
  </defs>
  <title>Asset 28</title>
  <g id="Layer_2" data-name="Layer 2">
    <g id="Layer_1-2" data-name="Layer 1">
      <g>
        <rect class="cls-1" y="85" width="181.54" height="80" rx="12" ry="12"/>
        <path class="cls-1" d="M169.54,0H12A12,12,0,0,0,0,12V54A12,12,0,0,0,12,66H22.94A11.91,11.91,0,0,1,21,59.5V45A12,12,0,0,1,33,33H148.54a12,12,0,0,1,12,12V59.5a11.9,11.9,0,0,1-1.93,6.5h10.93a12,12,0,0,0,12-12V12A12,12,0,0,0,169.54,0Z"/>
      </g>
    </g>
  </g>
</svg>
